<?xml version="1.0" standalone="no"?>
<!DOCTYPE svg PUBLIC "-//W3C//DTD SVG 20010904//EN"
 "http://www.w3.org/TR/2001/REC-SVG-20010904/DTD/svg10.dtd">
<svg version="1.0" xmlns="http://www.w3.org/2000/svg"
 width="512.000000pt" height="512.000000pt" viewBox="0 0 512.000000 512.000000"
 preserveAspectRatio="xMidYMid meet">
<metadata>
Created by potrace 1.11, written by Peter Selinger 2001-2013
</metadata>
<g transform="translate(0.000000,512.000000) scale(0.100000,-0.100000)"
fill="#000000" stroke="none">
<path d="M1895 5034 c-73 -18 -142 -43 -197 -72 -73 -37 -177 -131 -223 -199
-22 -35 -34 -43 -59 -44 -95 -2 -195 -30 -286 -81 -182 -102 -303 -287 -327
-498 -3 -27 -11 -49 -21 -54 -68 -39 -170 -168 -193 -245 -11 -37 -19 -44 -87
-78 -130 -66 -253 -206 -303 -349 -28 -78 -34 -113 -34 -214 1 -107 12 -166
48 -249 14 -33 13 -35 -28 -102 -113 -183 -134 -428 -55 -629 25 -63 99 -187
129 -214 16 -14 18 -23 11 -42 -18 -46 -22 -79 -25 -189 -6 -205 59 -368 205
-516 111 -112 217 -171 367 -203 25 -6 38 -19 62 -62 43 -76 136 -164 219
-207 38 -20 77 -37 85 -37 17 0 22 -13 32 -85 17 -125 90 -261 200 -371 136
-137 289 -204 475 -210 124 -3 189 7 289 47 100 40 199 107 266 181 30 34 56
59 57 57 2 -2 14 -25 27 -51 64 -128 218 -218 366 -212 78 2 297 52 442 99
132 44 153 52 273 107 99 46 123 58 145 71 11 7 49 29 85 49 70 40 237 158
316 223 187 154 397 400 526 615 42 69 122 218 124 230 0 3 12 30 26 61 74
161 148 411 174 586 3 21 10 67 16 103 14 83 18 453 7 545 -5 39 -11 90 -14
115 -3 25 -10 68 -15 95 -5 28 -11 62 -14 76 -9 55 -50 200 -88 309 -64 182
-129 317 -250 515 -92 151 -294 385 -458 531 -59 52 -218 169 -300 221 -64 40
-209 123 -215 123 -2 0 -32 13 -67 29 -140 65 -388 151 -481 166 -17 3 -39 8
-47 10 -15 4 -50 11 -107 21 -109 18 -191 7 -275 -38 -67 -36 -135 -98 -162
-150 l-19 -36 -56 57 c-131 134 -288 200 -468 199 -48 -1 -92 -2 -98 -4z
m1150 -205 c562 -122 1068 -457 1401 -929 91 -129 117 -173 193 -325 122 -247
188 -468 228 -765 9 -71 10 -406 1 -487 -106 -925 -738 -1699 -1618 -1978
-122 -38 -340 -82 -391 -78 -86 7 -161 62 -200 148 -18 38 -18 127 -16 2155
l2 2115 28 47 c32 56 75 90 136 111 52 17 108 14 236 -14z"/>
<path d="M3200 4305 c-157 -49 -210 -268 -94 -388 68 -70 150 -91 245 -64 102
30 164 116 164 227 0 77 -19 122 -72 173 -63 62 -150 80 -243 52z m127 -160
c49 -34 33 -127 -23 -141 -30 -8 -81 13 -94 37 -39 72 50 151 117 104z"/>
<path d="M3845 3748 c-34 -12 -92 -53 -117 -83 -26 -30 -50 -120 -46 -168 13
-121 120 -217 243 -217 75 0 156 49 201 120 25 38 29 55 29 115 0 102 -43 176
-131 221 -37 20 -140 27 -179 12z m138 -179 c25 -30 21 -71 -9 -104 -22 -23
-31 -27 -62 -22 -50 8 -76 41 -68 87 7 47 41 72 86 66 19 -3 43 -15 53 -27z"/>
<path d="M3200 3386 l0 -293 -25 -27 -24 -26 -176 0 -175 0 0 -81 0 -81 198 4
197 3 45 29 c50 31 90 82 108 135 8 23 12 133 12 332 l0 299 -80 0 -80 0 0
-294z"/>
<path d="M4240 2720 l0 -640 80 0 80 0 0 640 0 640 -80 0 -80 0 0 -640z"/>
<path d="M3838 2968 c-3 -171 -12 -200 -76 -263 -66 -64 -78 -65 -544 -65
l-418 0 0 -81 0 -80 448 3 447 3 58 26 c109 48 188 135 226 247 15 44 19 87
20 209 l2 153 -80 0 -80 0 -3 -152z"/>
<path d="M2800 2160 l0 -80 174 0 c156 0 176 -2 197 -19 l24 -19 3 -301 3
-301 80 0 80 0 -3 313 c-3 348 -4 352 -77 422 -55 54 -106 65 -308 65 l-173 0
0 -80z"/>
<path d="M3840 1840 l0 -400 80 0 80 0 0 400 0 400 -80 0 -80 0 0 -400z"/>
<path d="M4240 1840 l0 -80 80 0 80 0 0 80 0 80 -80 0 -80 0 0 -80z"/>
<path d="M3200 1265 c-118 -38 -186 -180 -146 -302 18 -55 71 -115 125 -141
49 -23 154 -22 203 2 79 38 138 129 138 211 0 88 -56 181 -133 221 -45 22
-133 27 -187 9z m127 -160 c49 -34 33 -127 -23 -141 -30 -8 -81 13 -94 37 -39
72 50 151 117 104z"/>
</g>
</svg>
